<mxfile host="app.diagrams.net" agent="Mozilla/5.0 (Windows NT 10.0; Win64; x64) AppleWebKit/537.36 (KHTML, like Gecko) Chrome/129.0.0.0 Safari/537.36" version="24.7.17">
  <diagram name="Trang-1" id="Uh6epJdWN2vR3j4I-BJE">
    <mxGraphModel dx="993" dy="616" grid="1" gridSize="10" guides="1" tooltips="1" connect="1" arrows="1" fold="1" page="1" pageScale="1" pageWidth="827" pageHeight="1169" math="0" shadow="0">
      <root>
        <mxCell id="0" />
        <mxCell id="1" parent="0" />
        <mxCell id="q6h98s6s_5xUiHDejhVp-1" value="NHD Shop" style="shape=umlFrame;whiteSpace=wrap;html=1;pointerEvents=0;" vertex="1" parent="1">
          <mxGeometry x="110" y="360" width="690" height="700" as="geometry" />
        </mxCell>
        <mxCell id="q6h98s6s_5xUiHDejhVp-10" style="edgeStyle=none;rounded=0;orthogonalLoop=1;jettySize=auto;html=1;exitX=0.5;exitY=0.5;exitDx=0;exitDy=0;exitPerimeter=0;entryX=0;entryY=0.5;entryDx=0;entryDy=0;endArrow=none;endFill=0;" edge="1" parent="1" source="q6h98s6s_5xUiHDejhVp-2" target="q6h98s6s_5xUiHDejhVp-5">
          <mxGeometry relative="1" as="geometry" />
        </mxCell>
        <mxCell id="q6h98s6s_5xUiHDejhVp-11" style="edgeStyle=none;rounded=0;orthogonalLoop=1;jettySize=auto;html=1;exitX=0.5;exitY=0.5;exitDx=0;exitDy=0;exitPerimeter=0;entryX=0;entryY=0.5;entryDx=0;entryDy=0;endArrow=none;endFill=0;" edge="1" parent="1" source="q6h98s6s_5xUiHDejhVp-2" target="q6h98s6s_5xUiHDejhVp-4">
          <mxGeometry relative="1" as="geometry" />
        </mxCell>
        <mxCell id="q6h98s6s_5xUiHDejhVp-2" value="Khách" style="shape=umlActor;verticalLabelPosition=bottom;verticalAlign=top;html=1;" vertex="1" parent="1">
          <mxGeometry x="130" y="400" width="30" height="60" as="geometry" />
        </mxCell>
        <mxCell id="q6h98s6s_5xUiHDejhVp-4" value="Danh sách work" style="ellipse;whiteSpace=wrap;html=1;" vertex="1" parent="1">
          <mxGeometry x="390" y="415" width="100" height="45" as="geometry" />
        </mxCell>
        <mxCell id="q6h98s6s_5xUiHDejhVp-5" value="Đăng kí" style="ellipse;whiteSpace=wrap;html=1;" vertex="1" parent="1">
          <mxGeometry x="390" y="370" width="100" height="40" as="geometry" />
        </mxCell>
        <mxCell id="q6h98s6s_5xUiHDejhVp-15" style="edgeStyle=none;rounded=0;orthogonalLoop=1;jettySize=auto;html=1;exitX=0;exitY=0.5;exitDx=0;exitDy=0;entryX=1;entryY=0.5;entryDx=0;entryDy=0;dashed=1;endArrow=open;endFill=0;" edge="1" parent="1" source="q6h98s6s_5xUiHDejhVp-13" target="q6h98s6s_5xUiHDejhVp-4">
          <mxGeometry relative="1" as="geometry" />
        </mxCell>
        <mxCell id="q6h98s6s_5xUiHDejhVp-18" value="Extend" style="edgeLabel;html=1;align=center;verticalAlign=middle;resizable=0;points=[];" vertex="1" connectable="0" parent="q6h98s6s_5xUiHDejhVp-15">
          <mxGeometry x="-0.0226" y="-1" relative="1" as="geometry">
            <mxPoint as="offset" />
          </mxGeometry>
        </mxCell>
        <mxCell id="q6h98s6s_5xUiHDejhVp-13" value="Tìm kiếm sản phẩm" style="ellipse;whiteSpace=wrap;html=1;" vertex="1" parent="1">
          <mxGeometry x="610" y="380" width="120" height="50" as="geometry" />
        </mxCell>
        <mxCell id="q6h98s6s_5xUiHDejhVp-17" style="edgeStyle=none;rounded=0;orthogonalLoop=1;jettySize=auto;html=1;exitX=0;exitY=0.5;exitDx=0;exitDy=0;entryX=1;entryY=0.5;entryDx=0;entryDy=0;dashed=1;endArrow=open;endFill=0;" edge="1" parent="1" source="q6h98s6s_5xUiHDejhVp-14" target="q6h98s6s_5xUiHDejhVp-4">
          <mxGeometry relative="1" as="geometry" />
        </mxCell>
        <mxCell id="q6h98s6s_5xUiHDejhVp-19" value="Extend" style="edgeLabel;html=1;align=center;verticalAlign=middle;resizable=0;points=[];" vertex="1" connectable="0" parent="q6h98s6s_5xUiHDejhVp-17">
          <mxGeometry x="-0.1881" y="-2" relative="1" as="geometry">
            <mxPoint x="-1" as="offset" />
          </mxGeometry>
        </mxCell>
        <mxCell id="q6h98s6s_5xUiHDejhVp-14" value="Xem chi tiết sản phẩm" style="ellipse;whiteSpace=wrap;html=1;" vertex="1" parent="1">
          <mxGeometry x="620" y="440" width="120" height="60" as="geometry" />
        </mxCell>
        <mxCell id="q6h98s6s_5xUiHDejhVp-22" style="edgeStyle=none;rounded=0;orthogonalLoop=1;jettySize=auto;html=1;exitX=0.5;exitY=0.5;exitDx=0;exitDy=0;exitPerimeter=0;entryX=0;entryY=0.5;entryDx=0;entryDy=0;endArrow=none;endFill=0;" edge="1" parent="1" source="q6h98s6s_5xUiHDejhVp-20" target="q6h98s6s_5xUiHDejhVp-21">
          <mxGeometry relative="1" as="geometry" />
        </mxCell>
        <mxCell id="q6h98s6s_5xUiHDejhVp-25" style="edgeStyle=none;rounded=0;orthogonalLoop=1;jettySize=auto;html=1;exitX=0.5;exitY=0.5;exitDx=0;exitDy=0;exitPerimeter=0;entryX=0;entryY=0.5;entryDx=0;entryDy=0;endArrow=none;endFill=0;" edge="1" parent="1" source="q6h98s6s_5xUiHDejhVp-20" target="q6h98s6s_5xUiHDejhVp-24">
          <mxGeometry relative="1" as="geometry" />
        </mxCell>
        <mxCell id="q6h98s6s_5xUiHDejhVp-27" style="edgeStyle=none;rounded=0;orthogonalLoop=1;jettySize=auto;html=1;exitX=0.5;exitY=0.5;exitDx=0;exitDy=0;exitPerimeter=0;entryX=0;entryY=0.5;entryDx=0;entryDy=0;endArrow=none;endFill=0;" edge="1" parent="1" source="q6h98s6s_5xUiHDejhVp-20" target="q6h98s6s_5xUiHDejhVp-26">
          <mxGeometry relative="1" as="geometry" />
        </mxCell>
        <mxCell id="q6h98s6s_5xUiHDejhVp-29" style="edgeStyle=none;rounded=0;orthogonalLoop=1;jettySize=auto;html=1;exitX=0.5;exitY=0.5;exitDx=0;exitDy=0;exitPerimeter=0;entryX=0;entryY=0.5;entryDx=0;entryDy=0;endArrow=none;endFill=0;" edge="1" parent="1" source="q6h98s6s_5xUiHDejhVp-20" target="q6h98s6s_5xUiHDejhVp-28">
          <mxGeometry relative="1" as="geometry" />
        </mxCell>
        <mxCell id="q6h98s6s_5xUiHDejhVp-31" style="edgeStyle=none;rounded=0;orthogonalLoop=1;jettySize=auto;html=1;exitX=0.5;exitY=0.5;exitDx=0;exitDy=0;exitPerimeter=0;entryX=0;entryY=0.5;entryDx=0;entryDy=0;endArrow=none;endFill=0;" edge="1" parent="1" source="q6h98s6s_5xUiHDejhVp-20" target="q6h98s6s_5xUiHDejhVp-30">
          <mxGeometry relative="1" as="geometry" />
        </mxCell>
        <mxCell id="q6h98s6s_5xUiHDejhVp-41" style="edgeStyle=none;rounded=0;orthogonalLoop=1;jettySize=auto;html=1;exitX=0.5;exitY=0.5;exitDx=0;exitDy=0;exitPerimeter=0;entryX=0;entryY=0.5;entryDx=0;entryDy=0;" edge="1" parent="1" source="q6h98s6s_5xUiHDejhVp-20" target="q6h98s6s_5xUiHDejhVp-36">
          <mxGeometry relative="1" as="geometry" />
        </mxCell>
        <mxCell id="q6h98s6s_5xUiHDejhVp-67" style="edgeStyle=none;rounded=0;orthogonalLoop=1;jettySize=auto;html=1;exitX=0.5;exitY=0;exitDx=0;exitDy=0;exitPerimeter=0;" edge="1" parent="1" source="q6h98s6s_5xUiHDejhVp-20" target="q6h98s6s_5xUiHDejhVp-2">
          <mxGeometry relative="1" as="geometry" />
        </mxCell>
        <mxCell id="q6h98s6s_5xUiHDejhVp-20" value="Người dùng" style="shape=umlActor;verticalLabelPosition=bottom;verticalAlign=top;html=1;" vertex="1" parent="1">
          <mxGeometry x="140" y="670" width="30" height="60" as="geometry" />
        </mxCell>
        <mxCell id="q6h98s6s_5xUiHDejhVp-48" style="edgeStyle=none;rounded=0;orthogonalLoop=1;jettySize=auto;html=1;exitX=1;exitY=0.5;exitDx=0;exitDy=0;dashed=1;endArrow=open;endFill=0;" edge="1" parent="1" source="q6h98s6s_5xUiHDejhVp-21" target="q6h98s6s_5xUiHDejhVp-47">
          <mxGeometry relative="1" as="geometry" />
        </mxCell>
        <mxCell id="q6h98s6s_5xUiHDejhVp-60" value="Include" style="edgeLabel;html=1;align=center;verticalAlign=middle;resizable=0;points=[];" vertex="1" connectable="0" parent="q6h98s6s_5xUiHDejhVp-48">
          <mxGeometry x="0.0431" y="2" relative="1" as="geometry">
            <mxPoint as="offset" />
          </mxGeometry>
        </mxCell>
        <mxCell id="q6h98s6s_5xUiHDejhVp-21" value="Hồ sơ cá nhân" style="ellipse;whiteSpace=wrap;html=1;" vertex="1" parent="1">
          <mxGeometry x="382.5" y="480" width="115" height="50" as="geometry" />
        </mxCell>
        <mxCell id="q6h98s6s_5xUiHDejhVp-50" style="edgeStyle=none;rounded=0;orthogonalLoop=1;jettySize=auto;html=1;exitX=1;exitY=0.5;exitDx=0;exitDy=0;entryX=0;entryY=0.5;entryDx=0;entryDy=0;endArrow=open;endFill=0;dashed=1;" edge="1" parent="1" source="q6h98s6s_5xUiHDejhVp-24" target="q6h98s6s_5xUiHDejhVp-47">
          <mxGeometry relative="1" as="geometry" />
        </mxCell>
        <mxCell id="q6h98s6s_5xUiHDejhVp-62" value="Include" style="edgeLabel;html=1;align=center;verticalAlign=middle;resizable=0;points=[];" vertex="1" connectable="0" parent="q6h98s6s_5xUiHDejhVp-50">
          <mxGeometry x="-0.2542" relative="1" as="geometry">
            <mxPoint y="1" as="offset" />
          </mxGeometry>
        </mxCell>
        <mxCell id="q6h98s6s_5xUiHDejhVp-24" value="Sản phẩm đã thích" style="ellipse;whiteSpace=wrap;html=1;" vertex="1" parent="1">
          <mxGeometry x="380" y="600" width="110" height="50" as="geometry" />
        </mxCell>
        <mxCell id="q6h98s6s_5xUiHDejhVp-26" value="Đơn hàn đã mua" style="ellipse;whiteSpace=wrap;html=1;" vertex="1" parent="1">
          <mxGeometry x="372.5" y="660" width="120" height="40" as="geometry" />
        </mxCell>
        <mxCell id="q6h98s6s_5xUiHDejhVp-51" style="edgeStyle=none;rounded=0;orthogonalLoop=1;jettySize=auto;html=1;exitX=1;exitY=0.5;exitDx=0;exitDy=0;dashed=1;endArrow=open;endFill=0;" edge="1" parent="1" source="q6h98s6s_5xUiHDejhVp-28" target="q6h98s6s_5xUiHDejhVp-47">
          <mxGeometry relative="1" as="geometry" />
        </mxCell>
        <mxCell id="q6h98s6s_5xUiHDejhVp-63" value="Include" style="edgeLabel;html=1;align=center;verticalAlign=middle;resizable=0;points=[];" vertex="1" connectable="0" parent="q6h98s6s_5xUiHDejhVp-51">
          <mxGeometry x="-0.3063" y="1" relative="1" as="geometry">
            <mxPoint as="offset" />
          </mxGeometry>
        </mxCell>
        <mxCell id="q6h98s6s_5xUiHDejhVp-28" value="Thay đổi mật khẩu" style="ellipse;whiteSpace=wrap;html=1;" vertex="1" parent="1">
          <mxGeometry x="375" y="710" width="125" height="40" as="geometry" />
        </mxCell>
        <mxCell id="q6h98s6s_5xUiHDejhVp-30" value="Đăng xuất" style="ellipse;whiteSpace=wrap;html=1;" vertex="1" parent="1">
          <mxGeometry x="375" y="770" width="115" height="40" as="geometry" />
        </mxCell>
        <mxCell id="q6h98s6s_5xUiHDejhVp-49" style="edgeStyle=none;rounded=0;orthogonalLoop=1;jettySize=auto;html=1;exitX=1;exitY=0.5;exitDx=0;exitDy=0;entryX=0;entryY=0;entryDx=0;entryDy=0;dashed=1;endArrow=openThin;endFill=0;" edge="1" parent="1" source="q6h98s6s_5xUiHDejhVp-32" target="q6h98s6s_5xUiHDejhVp-47">
          <mxGeometry relative="1" as="geometry" />
        </mxCell>
        <mxCell id="q6h98s6s_5xUiHDejhVp-61" value="Include" style="edgeLabel;html=1;align=center;verticalAlign=middle;resizable=0;points=[];" vertex="1" connectable="0" parent="q6h98s6s_5xUiHDejhVp-49">
          <mxGeometry x="-0.196" y="-3" relative="1" as="geometry">
            <mxPoint as="offset" />
          </mxGeometry>
        </mxCell>
        <mxCell id="q6h98s6s_5xUiHDejhVp-32" value="Thích sản phẩm" style="ellipse;whiteSpace=wrap;html=1;" vertex="1" parent="1">
          <mxGeometry x="380" y="535" width="122.5" height="50" as="geometry" />
        </mxCell>
        <mxCell id="q6h98s6s_5xUiHDejhVp-58" style="edgeStyle=none;rounded=0;orthogonalLoop=1;jettySize=auto;html=1;exitX=1;exitY=0;exitDx=0;exitDy=0;entryX=0;entryY=1;entryDx=0;entryDy=0;endArrow=open;endFill=0;dashed=1;" edge="1" parent="1" source="q6h98s6s_5xUiHDejhVp-36" target="q6h98s6s_5xUiHDejhVp-47">
          <mxGeometry relative="1" as="geometry" />
        </mxCell>
        <mxCell id="q6h98s6s_5xUiHDejhVp-65" value="Include" style="edgeLabel;html=1;align=center;verticalAlign=middle;resizable=0;points=[];" vertex="1" connectable="0" parent="q6h98s6s_5xUiHDejhVp-58">
          <mxGeometry x="0.187" y="-3" relative="1" as="geometry">
            <mxPoint x="-1" as="offset" />
          </mxGeometry>
        </mxCell>
        <mxCell id="q6h98s6s_5xUiHDejhVp-36" value="Giỏ hàng" style="ellipse;whiteSpace=wrap;html=1;" vertex="1" parent="1">
          <mxGeometry x="379.5" y="850" width="106" height="50" as="geometry" />
        </mxCell>
        <mxCell id="q6h98s6s_5xUiHDejhVp-37" value="Thêm vào giỏ hàng" style="ellipse;whiteSpace=wrap;html=1;" vertex="1" parent="1">
          <mxGeometry x="680" y="535" width="110" height="50" as="geometry" />
        </mxCell>
        <mxCell id="q6h98s6s_5xUiHDejhVp-40" style="edgeStyle=none;rounded=0;orthogonalLoop=1;jettySize=auto;html=1;exitX=0.5;exitY=0;exitDx=0;exitDy=0;entryX=0;entryY=1;entryDx=0;entryDy=0;endArrow=open;endFill=0;dashed=1;" edge="1" parent="1" source="q6h98s6s_5xUiHDejhVp-38" target="q6h98s6s_5xUiHDejhVp-14">
          <mxGeometry relative="1" as="geometry">
            <mxPoint x="480" y="864.9999999999998" as="targetPoint" />
          </mxGeometry>
        </mxCell>
        <mxCell id="q6h98s6s_5xUiHDejhVp-44" value="Extend" style="edgeLabel;html=1;align=center;verticalAlign=middle;resizable=0;points=[];" vertex="1" connectable="0" parent="q6h98s6s_5xUiHDejhVp-40">
          <mxGeometry x="-0.0118" y="-3" relative="1" as="geometry">
            <mxPoint as="offset" />
          </mxGeometry>
        </mxCell>
        <mxCell id="q6h98s6s_5xUiHDejhVp-38" value="Bình luận, đánh giá" style="ellipse;whiteSpace=wrap;html=1;" vertex="1" parent="1">
          <mxGeometry x="560" y="520" width="120" height="50" as="geometry" />
        </mxCell>
        <mxCell id="q6h98s6s_5xUiHDejhVp-39" style="edgeStyle=none;rounded=0;orthogonalLoop=1;jettySize=auto;html=1;exitX=0.5;exitY=0;exitDx=0;exitDy=0;entryX=0.711;entryY=0.997;entryDx=0;entryDy=0;entryPerimeter=0;endArrow=open;endFill=0;dashed=1;" edge="1" parent="1" source="q6h98s6s_5xUiHDejhVp-37" target="q6h98s6s_5xUiHDejhVp-14">
          <mxGeometry relative="1" as="geometry" />
        </mxCell>
        <mxCell id="q6h98s6s_5xUiHDejhVp-45" value="Extend" style="edgeLabel;html=1;align=center;verticalAlign=middle;resizable=0;points=[];" vertex="1" connectable="0" parent="q6h98s6s_5xUiHDejhVp-39">
          <mxGeometry x="-0.1295" y="1" relative="1" as="geometry">
            <mxPoint as="offset" />
          </mxGeometry>
        </mxCell>
        <mxCell id="q6h98s6s_5xUiHDejhVp-43" style="edgeStyle=none;rounded=0;orthogonalLoop=1;jettySize=auto;html=1;exitX=0;exitY=0.5;exitDx=0;exitDy=0;entryX=1;entryY=0.5;entryDx=0;entryDy=0;endArrow=open;endFill=0;dashed=1;" edge="1" parent="1" source="q6h98s6s_5xUiHDejhVp-42" target="q6h98s6s_5xUiHDejhVp-36">
          <mxGeometry relative="1" as="geometry" />
        </mxCell>
        <mxCell id="q6h98s6s_5xUiHDejhVp-46" value="Include" style="edgeLabel;html=1;align=center;verticalAlign=middle;resizable=0;points=[];" vertex="1" connectable="0" parent="q6h98s6s_5xUiHDejhVp-43">
          <mxGeometry x="-0.077" y="2" relative="1" as="geometry">
            <mxPoint as="offset" />
          </mxGeometry>
        </mxCell>
        <mxCell id="q6h98s6s_5xUiHDejhVp-42" value="Thanh toán" style="ellipse;whiteSpace=wrap;html=1;" vertex="1" parent="1">
          <mxGeometry x="560" y="850" width="97.5" height="50" as="geometry" />
        </mxCell>
        <mxCell id="q6h98s6s_5xUiHDejhVp-47" value="Đăng nhập" style="ellipse;whiteSpace=wrap;html=1;" vertex="1" parent="1">
          <mxGeometry x="640" y="660" width="140" height="70" as="geometry" />
        </mxCell>
        <mxCell id="q6h98s6s_5xUiHDejhVp-53" style="edgeStyle=none;rounded=0;orthogonalLoop=1;jettySize=auto;html=1;exitX=1;exitY=0.5;exitDx=0;exitDy=0;entryX=0.038;entryY=0.64;entryDx=0;entryDy=0;entryPerimeter=0;endArrow=open;endFill=0;dashed=1;" edge="1" parent="1" source="q6h98s6s_5xUiHDejhVp-30" target="q6h98s6s_5xUiHDejhVp-47">
          <mxGeometry relative="1" as="geometry" />
        </mxCell>
        <mxCell id="q6h98s6s_5xUiHDejhVp-64" value="Include" style="edgeLabel;html=1;align=center;verticalAlign=middle;resizable=0;points=[];" vertex="1" connectable="0" parent="q6h98s6s_5xUiHDejhVp-53">
          <mxGeometry x="-0.0591" relative="1" as="geometry">
            <mxPoint y="1" as="offset" />
          </mxGeometry>
        </mxCell>
        <mxCell id="q6h98s6s_5xUiHDejhVp-56" style="edgeStyle=none;rounded=0;orthogonalLoop=1;jettySize=auto;html=1;exitX=0.5;exitY=1;exitDx=0;exitDy=0;entryX=0.342;entryY=0.069;entryDx=0;entryDy=0;entryPerimeter=0;dashed=1;endArrow=open;endFill=0;" edge="1" parent="1" source="q6h98s6s_5xUiHDejhVp-38" target="q6h98s6s_5xUiHDejhVp-47">
          <mxGeometry relative="1" as="geometry" />
        </mxCell>
        <mxCell id="q6h98s6s_5xUiHDejhVp-59" value="Include" style="edgeLabel;html=1;align=center;verticalAlign=middle;resizable=0;points=[];" vertex="1" connectable="0" parent="q6h98s6s_5xUiHDejhVp-56">
          <mxGeometry x="-0.3411" relative="1" as="geometry">
            <mxPoint x="-1" as="offset" />
          </mxGeometry>
        </mxCell>
        <mxCell id="q6h98s6s_5xUiHDejhVp-57" style="edgeStyle=none;rounded=0;orthogonalLoop=1;jettySize=auto;html=1;exitX=0.5;exitY=1;exitDx=0;exitDy=0;entryX=0.598;entryY=0.033;entryDx=0;entryDy=0;entryPerimeter=0;dashed=1;endArrow=open;endFill=0;" edge="1" parent="1" source="q6h98s6s_5xUiHDejhVp-37" target="q6h98s6s_5xUiHDejhVp-47">
          <mxGeometry relative="1" as="geometry" />
        </mxCell>
        <mxCell id="q6h98s6s_5xUiHDejhVp-66" value="Include" style="edgeLabel;html=1;align=center;verticalAlign=middle;resizable=0;points=[];" vertex="1" connectable="0" parent="q6h98s6s_5xUiHDejhVp-57">
          <mxGeometry x="-0.2767" y="-1" relative="1" as="geometry">
            <mxPoint y="-1" as="offset" />
          </mxGeometry>
        </mxCell>
        <mxCell id="q6h98s6s_5xUiHDejhVp-68" value="NHD Shop" style="shape=umlFrame;whiteSpace=wrap;html=1;pointerEvents=0;" vertex="1" parent="1">
          <mxGeometry x="100" y="1169" width="700" height="681" as="geometry" />
        </mxCell>
        <mxCell id="q6h98s6s_5xUiHDejhVp-71" style="edgeStyle=none;rounded=0;orthogonalLoop=1;jettySize=auto;html=1;exitX=0.5;exitY=0.5;exitDx=0;exitDy=0;exitPerimeter=0;entryX=0;entryY=0.5;entryDx=0;entryDy=0;endArrow=none;endFill=0;" edge="1" parent="1" source="q6h98s6s_5xUiHDejhVp-69" target="q6h98s6s_5xUiHDejhVp-70">
          <mxGeometry relative="1" as="geometry" />
        </mxCell>
        <mxCell id="q6h98s6s_5xUiHDejhVp-73" style="edgeStyle=none;rounded=0;orthogonalLoop=1;jettySize=auto;html=1;exitX=0.5;exitY=0.5;exitDx=0;exitDy=0;exitPerimeter=0;entryX=0;entryY=0.5;entryDx=0;entryDy=0;endArrow=none;endFill=0;" edge="1" parent="1" source="q6h98s6s_5xUiHDejhVp-69" target="q6h98s6s_5xUiHDejhVp-72">
          <mxGeometry relative="1" as="geometry" />
        </mxCell>
        <mxCell id="q6h98s6s_5xUiHDejhVp-80" style="edgeStyle=none;rounded=0;orthogonalLoop=1;jettySize=auto;html=1;exitX=0.5;exitY=0.5;exitDx=0;exitDy=0;exitPerimeter=0;entryX=0;entryY=0.5;entryDx=0;entryDy=0;endArrow=none;endFill=0;" edge="1" parent="1" source="q6h98s6s_5xUiHDejhVp-69" target="q6h98s6s_5xUiHDejhVp-79">
          <mxGeometry relative="1" as="geometry" />
        </mxCell>
        <mxCell id="q6h98s6s_5xUiHDejhVp-82" style="edgeStyle=none;rounded=0;orthogonalLoop=1;jettySize=auto;html=1;exitX=0.5;exitY=0.5;exitDx=0;exitDy=0;exitPerimeter=0;entryX=0;entryY=0.5;entryDx=0;entryDy=0;endArrow=none;endFill=0;" edge="1" parent="1" source="q6h98s6s_5xUiHDejhVp-69" target="q6h98s6s_5xUiHDejhVp-81">
          <mxGeometry relative="1" as="geometry" />
        </mxCell>
        <mxCell id="q6h98s6s_5xUiHDejhVp-84" style="edgeStyle=none;rounded=0;orthogonalLoop=1;jettySize=auto;html=1;exitX=0.5;exitY=0.5;exitDx=0;exitDy=0;exitPerimeter=0;entryX=0;entryY=0.5;entryDx=0;entryDy=0;endArrow=none;endFill=0;" edge="1" parent="1" source="q6h98s6s_5xUiHDejhVp-69" target="q6h98s6s_5xUiHDejhVp-83">
          <mxGeometry relative="1" as="geometry" />
        </mxCell>
        <mxCell id="q6h98s6s_5xUiHDejhVp-69" value="Quản trị viên" style="shape=umlActor;verticalLabelPosition=bottom;verticalAlign=top;html=1;" vertex="1" parent="1">
          <mxGeometry x="140" y="1400" width="30" height="60" as="geometry" />
        </mxCell>
        <mxCell id="q6h98s6s_5xUiHDejhVp-70" value="Xem thống kê" style="ellipse;whiteSpace=wrap;html=1;" vertex="1" parent="1">
          <mxGeometry x="367.5" y="1230" width="140" height="70" as="geometry" />
        </mxCell>
        <mxCell id="q6h98s6s_5xUiHDejhVp-72" value="Quản lý sản phẩm" style="ellipse;whiteSpace=wrap;html=1;" vertex="1" parent="1">
          <mxGeometry x="330" y="1390" width="140" height="70" as="geometry" />
        </mxCell>
        <mxCell id="q6h98s6s_5xUiHDejhVp-74" value="Thêm sản phẩm" style="ellipse;whiteSpace=wrap;html=1;" vertex="1" parent="1">
          <mxGeometry x="375" y="1320" width="140" height="50" as="geometry" />
        </mxCell>
        <mxCell id="q6h98s6s_5xUiHDejhVp-77" value="Chỉnh sửa/Xóa" style="ellipse;whiteSpace=wrap;html=1;" vertex="1" parent="1">
          <mxGeometry x="380" y="1480" width="140" height="40" as="geometry" />
        </mxCell>
        <mxCell id="q6h98s6s_5xUiHDejhVp-79" value="Quản lý danh mục" style="ellipse;whiteSpace=wrap;html=1;" vertex="1" parent="1">
          <mxGeometry x="330" y="1530" width="140" height="60" as="geometry" />
        </mxCell>
        <mxCell id="q6h98s6s_5xUiHDejhVp-81" value="Quản lý đơn hàng" style="ellipse;whiteSpace=wrap;html=1;" vertex="1" parent="1">
          <mxGeometry x="330" y="1610" width="140" height="70" as="geometry" />
        </mxCell>
        <mxCell id="q6h98s6s_5xUiHDejhVp-97" style="edgeStyle=none;rounded=0;orthogonalLoop=1;jettySize=auto;html=1;exitX=1;exitY=0.5;exitDx=0;exitDy=0;entryX=0.5;entryY=1;entryDx=0;entryDy=0;dashed=1;endArrow=open;endFill=0;" edge="1" parent="1" source="q6h98s6s_5xUiHDejhVp-83" target="q6h98s6s_5xUiHDejhVp-91">
          <mxGeometry relative="1" as="geometry" />
        </mxCell>
        <mxCell id="q6h98s6s_5xUiHDejhVp-83" value="Quản lý người dùng" style="ellipse;whiteSpace=wrap;html=1;" vertex="1" parent="1">
          <mxGeometry x="320" y="1710" width="140" height="70" as="geometry" />
        </mxCell>
        <mxCell id="q6h98s6s_5xUiHDejhVp-87" style="edgeStyle=none;rounded=0;orthogonalLoop=1;jettySize=auto;html=1;exitX=0.5;exitY=1;exitDx=0;exitDy=0;entryX=0.568;entryY=0.01;entryDx=0;entryDy=0;entryPerimeter=0;dashed=1;endArrow=open;endFill=0;" edge="1" parent="1" source="q6h98s6s_5xUiHDejhVp-74" target="q6h98s6s_5xUiHDejhVp-72">
          <mxGeometry relative="1" as="geometry" />
        </mxCell>
        <mxCell id="q6h98s6s_5xUiHDejhVp-89" value="Extend" style="edgeLabel;html=1;align=center;verticalAlign=middle;resizable=0;points=[];" vertex="1" connectable="0" parent="q6h98s6s_5xUiHDejhVp-87">
          <mxGeometry x="0.0742" relative="1" as="geometry">
            <mxPoint x="1" as="offset" />
          </mxGeometry>
        </mxCell>
        <mxCell id="q6h98s6s_5xUiHDejhVp-88" style="edgeStyle=none;rounded=0;orthogonalLoop=1;jettySize=auto;html=1;exitX=0.5;exitY=0;exitDx=0;exitDy=0;entryX=0.425;entryY=1.033;entryDx=0;entryDy=0;entryPerimeter=0;dashed=1;endArrow=open;endFill=0;" edge="1" parent="1" source="q6h98s6s_5xUiHDejhVp-77" target="q6h98s6s_5xUiHDejhVp-72">
          <mxGeometry relative="1" as="geometry" />
        </mxCell>
        <mxCell id="q6h98s6s_5xUiHDejhVp-90" value="Extend" style="edgeLabel;html=1;align=center;verticalAlign=middle;resizable=0;points=[];" vertex="1" connectable="0" parent="q6h98s6s_5xUiHDejhVp-88">
          <mxGeometry x="0.0188" y="2" relative="1" as="geometry">
            <mxPoint as="offset" />
          </mxGeometry>
        </mxCell>
        <mxCell id="q6h98s6s_5xUiHDejhVp-91" value="Đăng nhập" style="ellipse;whiteSpace=wrap;html=1;" vertex="1" parent="1">
          <mxGeometry x="620" y="1440" width="140" height="70" as="geometry" />
        </mxCell>
        <mxCell id="q6h98s6s_5xUiHDejhVp-92" style="edgeStyle=none;rounded=0;orthogonalLoop=1;jettySize=auto;html=1;exitX=1;exitY=1;exitDx=0;exitDy=0;entryX=0.282;entryY=0.081;entryDx=0;entryDy=0;entryPerimeter=0;dashed=1;endArrow=open;endFill=0;" edge="1" parent="1" source="q6h98s6s_5xUiHDejhVp-70" target="q6h98s6s_5xUiHDejhVp-91">
          <mxGeometry relative="1" as="geometry" />
        </mxCell>
        <mxCell id="q6h98s6s_5xUiHDejhVp-93" style="edgeStyle=none;rounded=0;orthogonalLoop=1;jettySize=auto;html=1;exitX=1;exitY=1;exitDx=0;exitDy=0;entryX=0.05;entryY=0.379;entryDx=0;entryDy=0;entryPerimeter=0;dashed=1;endArrow=open;endFill=0;" edge="1" parent="1" source="q6h98s6s_5xUiHDejhVp-74" target="q6h98s6s_5xUiHDejhVp-91">
          <mxGeometry relative="1" as="geometry" />
        </mxCell>
        <mxCell id="q6h98s6s_5xUiHDejhVp-94" style="edgeStyle=none;rounded=0;orthogonalLoop=1;jettySize=auto;html=1;exitX=1;exitY=0.5;exitDx=0;exitDy=0;entryX=0.02;entryY=0.629;entryDx=0;entryDy=0;entryPerimeter=0;dashed=1;endArrow=open;endFill=0;" edge="1" parent="1" source="q6h98s6s_5xUiHDejhVp-72" target="q6h98s6s_5xUiHDejhVp-91">
          <mxGeometry relative="1" as="geometry" />
        </mxCell>
        <mxCell id="q6h98s6s_5xUiHDejhVp-95" style="edgeStyle=none;rounded=0;orthogonalLoop=1;jettySize=auto;html=1;exitX=1;exitY=0.5;exitDx=0;exitDy=0;entryX=0.086;entryY=0.831;entryDx=0;entryDy=0;entryPerimeter=0;endArrow=open;endFill=0;dashed=1;" edge="1" parent="1" source="q6h98s6s_5xUiHDejhVp-79" target="q6h98s6s_5xUiHDejhVp-91">
          <mxGeometry relative="1" as="geometry" />
        </mxCell>
        <mxCell id="q6h98s6s_5xUiHDejhVp-96" style="edgeStyle=none;rounded=0;orthogonalLoop=1;jettySize=auto;html=1;exitX=1;exitY=0.5;exitDx=0;exitDy=0;entryX=0.223;entryY=0.998;entryDx=0;entryDy=0;entryPerimeter=0;endArrow=open;endFill=0;dashed=1;" edge="1" parent="1" source="q6h98s6s_5xUiHDejhVp-81" target="q6h98s6s_5xUiHDejhVp-91">
          <mxGeometry relative="1" as="geometry" />
        </mxCell>
      </root>
    </mxGraphModel>
  </diagram>
</mxfile>
